<svg width="640" height="216" viewBox="0 0 640 216" fill="none" xmlns="http://www.w3.org/2000/svg">
<path fill-rule="evenodd" clip-rule="evenodd" d="M75.2428 72.233C75.2428 51.6505 82.136 34.466 95.9224 20.6796C109.709 6.89321 126.893 0 147.476 0C168.253 0 185.534 6.89321 199.32 20.6796C212.913 34.2719 219.709 51.4563 219.709 72.233C219.709 93.0098 212.913 110.194 199.32 123.786C185.534 137.573 168.253 144.466 147.476 144.466C126.893 144.466 109.709 137.573 95.9224 123.786C82.136 110 75.2428 92.8156 75.2428 72.233ZM177.767 40.1942C170 32.0389 159.903 27.9612 147.476 27.9612C135.049 27.9612 124.952 32.0389 117.185 40.1942C109.223 48.7379 105.243 59.3204 105.243 71.9418C105.243 84.5631 109.223 95.1457 117.185 103.689C124.952 112.039 135.049 116.214 147.476 116.214C160.097 116.214 170.291 112.039 178.058 103.689C185.825 95.3399 189.709 84.7573 189.709 71.9418C189.709 59.3204 185.728 48.7379 177.767 40.1942Z" fill="#2E3432"/>
<path d="M64.6602 1.74762C70.8738 1.74762 76.8932 2.81558 82.7185 4.95151L76.0195 35.534C70.1942 33.2039 64.369 32.0389 58.5437 32.0389C50 32.0389 43.1068 34.8544 38.0583 40.4855C32.9126 46.1166 30.3884 54.369 30.3884 65.2428V141.554H0V3.49519H29.7088V20.3884C36.3107 7.96122 47.9612 1.74762 64.6602 1.74762Z" fill="#2E3432"/>
<path d="M231.65 3.49515V141.553H261.941V70.1942C261.941 57.5729 265.145 47.5728 271.65 40.1942C278.155 32.8156 286.505 29.1262 296.602 29.1262C305.145 29.1262 311.942 31.9418 316.99 37.5728C322.039 43.2039 324.563 51.3593 324.563 62.0389V141.553H354.854V51.5534C354.854 35.2427 350 22.5243 340.291 13.3981C330.776 4.46602 319.029 0 305.048 0C285.631 0 271.068 7.76699 261.359 23.301V3.49515H231.65Z" fill="#2E3432"/>
<path d="M374.854 141.553V3.49515H404.563V23.301C414.272 7.76699 428.835 0 448.252 0C462.233 0 473.98 4.46602 483.495 13.3981C493.204 22.5243 498.058 35.2427 498.058 51.5534V141.553H467.767V62.0389C467.767 51.3593 465.243 43.2039 460.194 37.5728C455.145 31.9418 448.349 29.1262 439.806 29.1262C429.709 29.1262 421.359 32.8156 414.854 40.1942C408.349 47.5728 405.145 57.5729 405.145 70.1942V141.553H374.854Z" fill="#2E3432"/>
<path d="M638.058 3.49535L640 73.01H609.611C609.708 72.0397 609.708 70.9725 609.708 69.9052V69.9032L607.767 3.49535H638.058Z" fill="#2E3432"/>
<path d="M597.476 102.136L609.126 120.583C601.359 128.35 597.476 130.874 597.476 130.874C589.612 136.99 580.097 140 568.932 140C554.563 140 541.844 135.049 530.776 125.146C519.709 115.243 514.174 101.165 514.174 82.9128L517.087 3.39817H547.378L544.466 78.2526C544.466 88.3497 547.087 96.3108 552.427 102.136C557.767 107.961 564.854 110.874 573.883 110.874C583.204 110.874 591.068 107.767 597.476 101.651V102.136Z" fill="#2E3432"/>
<path d="M599.611 176.602C605.631 170.486 609.029 162.622 610 153.01L638.544 162.719C636.019 176.796 629.611 188.35 619.514 197.185C605.728 209.224 589.611 215.243 571.165 215.243C555.437 215.243 541.165 210.874 528.349 202.136C515.534 193.01 507.087 180.097 503.009 163.398L531.844 153.495C533.98 163.787 538.835 172.039 546.408 178.156C553.98 184.272 562.718 187.379 572.621 187.379C583.495 187.379 592.524 183.787 599.611 176.602Z" fill="#2E3432"/>
</svg>
